<svg xmlns="http://www.w3.org/2000/svg" viewBox="0 0 24 24">
  <path fill="#FF9900" d="M.045 18.02c.072-.116.187-.124.348-.022 3.636 2.11 7.594 3.166 11.87 3.166 2.852 0 5.668-.533 8.447-1.595.379-.144.681-.266.91-.358.23-.092.392-.14.485-.14.168 0 .252.113.252.337 0 .142-.068.296-.202.463-.134.167-.348.333-.64.497-.727.392-1.599.744-2.614 1.055a19.4 19.4 0 01-3.12.693c-1.063.151-2.128.226-3.194.226a21.1 21.1 0 01-4.68-.519 18.86 18.86 0 01-4.454-1.517c-.386-.18-.653-.373-.803-.58-.15-.207-.181-.394-.095-.556zm13.88-7.574c0-.755.227-1.398.68-1.93.454-.532 1.051-.905 1.794-1.119v-.053c-.577-.196-.997-.468-1.26-.816-.264-.348-.396-.788-.396-1.32 0-.755.253-1.382.76-1.882.506-.5 1.195-.8 2.067-.9v-.23h1.088v.234c.835.104 1.5.396 1.996.876.496.48.748 1.095.756 1.844h-1.76c-.016-.395-.146-.717-.389-.966-.244-.249-.586-.389-1.026-.421v3.266c.89.136 1.585.443 2.085.923.5.48.75 1.078.75 1.794 0 .835-.256 1.518-.769 2.05-.513.532-1.207.862-2.082.99v.712h-1.088v-.695c-.898-.096-1.613-.406-2.145-.93-.532-.524-.806-1.187-.822-1.988h1.793c.016.436.16.786.434 1.05.273.265.643.424 1.109.477v-3.487c-.882-.136-1.565-.44-2.05-.912-.484-.472-.726-1.067-.726-1.785zm2.817-3.94c-.293.068-.527.202-.702.403a1.043 1.043 0 00-.263.717c0 .293.093.54.28.74.186.2.424.333.712.4V6.506zm1.088 7.685c.32-.072.574-.213.76-.424.187-.21.28-.473.28-.788 0-.3-.093-.55-.28-.75a1.185 1.185 0 00-.76-.4v2.362z"/>
  <path fill="#232F3E" d="M6.705 13.01c0-1.22.312-2.246.936-3.076.624-.83 1.444-1.376 2.46-1.637v-.052c-.768-.26-1.372-.66-1.812-1.2-.44-.54-.66-1.188-.66-1.944 0-1.156.4-2.088 1.2-2.796.8-.708 1.88-1.092 3.24-1.152V.72h1.248v.433c1.312.064 2.36.456 3.144 1.176.784.72 1.184 1.656 1.2 2.808h-2.016c-.016-.576-.2-1.048-.552-1.416-.352-.368-.84-.584-1.464-.648v4.464c1.28.192 2.268.624 2.964 1.296.696.672 1.044 1.512 1.044 2.52 0 1.2-.368 2.168-1.104 2.904-.736.736-1.716 1.168-2.94 1.296v1.167h-1.248v-1.152c-1.296-.112-2.332-.52-3.108-1.224-.776-.704-1.176-1.616-1.2-2.736h2.064c.016.592.208 1.08.576 1.464.368.384.872.616 1.512.696v-4.8c-1.264-.192-2.24-.62-2.928-1.284-.688-.664-1.032-1.5-1.032-2.508z"/>
</svg>
