<svg width="380" height="680" viewBox="0 0 380 680" fill="none" xmlns="http://www.w3.org/2000/svg">
<path d="M191.701 504.803C143.321 504.803 104.102 544.022 104.102 592.401C104.102 640.781 143.321 680 191.701 680C240.08 680 279.299 640.781 279.299 592.401C279.299 544.022 240.08 504.803 191.701 504.803Z" fill="url(#paint0_linear_2645_1165)"/>
<path d="M189.918 85.8128C111.363 85.8128 47.6817 149.494 47.6817 228.049C47.6817 306.604 111.363 370.285 189.918 370.285C268.473 370.285 332.154 306.604 332.154 228.049C332.154 149.494 268.473 85.8128 189.918 85.8128Z" stroke="#EBE7D4" stroke-width="2.96944" stroke-miterlimit="10"/>
<path d="M324 255.954C324 259.375 326.544 262.148 329.683 262.148C332.821 262.148 335.365 259.375 335.365 255.954C335.365 252.533 332.821 249.759 329.683 249.759C326.544 249.759 324 252.533 324 255.954Z" fill="#EBE7D4"/>
<path d="M189.919 311.43C114.939 311.43 54.1559 372.213 54.1559 447.193C54.1559 522.173 114.939 582.956 189.919 582.956C264.899 582.956 325.682 522.173 325.682 447.193C325.682 372.213 264.899 311.43 189.919 311.43Z" stroke="#EBE7D4" stroke-width="106.9" stroke-miterlimit="10" stroke-dasharray="0.71 7.13"/>
<path d="M189.918 0.000373713C142.523 0.000377857 104.102 38.422 104.102 85.8173C104.102 133.213 142.523 171.634 189.918 171.634C237.314 171.634 275.735 133.213 275.735 85.8173C275.735 38.422 237.314 0.00036957 189.918 0.000373713Z" fill="#EBE7D4" fill-opacity="0.1"/>
<path d="M211.417 62.6159C223.881 76.2025 237.434 83.4558 241.69 78.8164C245.946 74.1771 239.292 59.4019 226.829 45.8152C214.365 32.2285 200.811 24.9753 196.556 29.6147C192.3 34.254 198.953 49.0292 211.417 62.6159Z" stroke="#EBE7D4" stroke-width="0.778419" stroke-miterlimit="10"/>
<path d="M198.896 76.2799C211.359 89.8666 224.913 97.1199 229.169 92.4805C233.425 87.8411 226.771 73.066 214.307 59.4793C201.844 45.8926 188.29 38.6394 184.034 43.2787C179.778 47.9181 186.432 62.6932 198.896 76.2799Z" stroke="#EBE7D4" stroke-width="0.778419" stroke-miterlimit="10"/>
<path d="M154.358 124.815C166.822 138.401 180.376 145.655 184.632 141.015C188.887 136.376 182.234 121.601 169.77 108.014C157.307 94.4273 143.753 87.174 139.497 91.8134C135.241 96.4527 141.895 111.228 154.358 124.815Z" stroke="#EBE7D4" stroke-width="0.778419" stroke-miterlimit="10"/>
<path d="M166.196 84.4561C166.196 99.5935 177.453 111.865 191.339 111.865C205.225 111.865 216.482 99.5935 216.482 84.4561C216.482 69.3187 205.225 57.0474 191.339 57.0474C177.453 57.0474 166.196 69.3187 166.196 84.4561Z" fill="url(#paint1_linear_2645_1165)"/>
<path d="M222.476 44.32C222.476 47.7412 225.02 50.5146 228.158 50.5146C231.296 50.5146 233.841 47.7412 233.841 44.32C233.841 40.8989 231.296 38.1255 228.158 38.1255C225.02 38.1255 222.476 40.8989 222.476 44.32Z" fill="#EBE7D4"/>
<path d="M148.603 124.849C148.603 128.27 151.147 131.043 154.286 131.043C157.424 131.043 159.968 128.27 159.968 124.849C159.968 121.428 157.424 118.654 154.286 118.654C151.147 118.654 148.603 121.428 148.603 124.849Z" fill="#EBE7D4"/>
<path d="M166.826 111.211C179.289 124.797 192.843 132.051 197.099 127.411C201.355 122.772 194.701 107.997 182.238 94.41C169.774 80.8233 156.22 73.57 151.965 78.2094C147.709 82.8487 154.362 97.6239 166.826 111.211Z" stroke="#EBE7D4" stroke-width="0.778419" stroke-miterlimit="10"/>
<defs>
<linearGradient id="paint0_linear_2645_1165" x1="279.099" y1="592.403" x2="104.04" y2="592.403" gradientUnits="userSpaceOnUse">
<stop stop-color="#218CE1"/>
<stop offset="0.0939489" stop-color="#87C1F8"/>
<stop offset="0.2128" stop-color="#141416"/>
<stop offset="0.3221" stop-color="#23262F"/>
<stop offset="0.4181" stop-color="#353945"/>
<stop offset="0.4971" stop-color="#5F329B"/>
<stop offset="0.5495" stop-color="#19693C"/>
<stop offset="0.6643" stop-color="#19693C"/>
<stop offset="0.7613" stop-color="#05BE64"/>
<stop offset="0.8518" stop-color="#78E69B"/>
<stop offset="0.938" stop-color="#7AFB79"/>
<stop offset="0.9593" stop-color="#DFFF1C"/>
</linearGradient>
<linearGradient id="paint1_linear_2645_1165" x1="191.339" y1="57.1099" x2="191.339" y2="111.884" gradientUnits="userSpaceOnUse">
<stop stop-color="#218CE1"/>
<stop offset="0.0939489" stop-color="#87C1F8"/>
<stop offset="0.2128" stop-color="#917EE8"/>
<stop offset="0.3221" stop-color="#C391FF"/>
<stop offset="0.4181" stop-color="#9B55FF"/>
<stop offset="0.4971" stop-color="#5F329B"/>
<stop offset="0.5495" stop-color="#19693C"/>
<stop offset="0.6643" stop-color="#19693C"/>
<stop offset="0.7613" stop-color="#05BE64"/>
<stop offset="0.8518" stop-color="#78E69B"/>
<stop offset="0.938" stop-color="#7AFB79"/>
<stop offset="0.9593" stop-color="#DFFF1C"/>
</linearGradient>
</defs>
</svg>
