<svg width="112" height="99" viewBox="0 0 112 99" fill="none" xmlns="http://www.w3.org/2000/svg">
<path d="M51.86 15.5595H75.5014C75.8314 15.5595 76.1344 15.7346 76.296 16.0174L92.6787 44.5339H97.675L78.8009 11.6742C78.6393 11.3914 78.3363 11.2164 78.0063 11.2164H54.3648C52.2236 11.2164 51.227 9.60703 51.227 9.60703L33.7804 0.799561L38.4737 8.77207L48.7221 13.9434C48.7221 13.9434 49.7187 15.5528 51.86 15.5528V15.5595Z" fill="url(#paint0_linear_2385_590)"/>
<path d="M33.3293 21.2157L30.8312 16.886L11.4588 49.3283C11.2904 49.6111 11.2904 49.9612 11.4588 50.244L23.6061 71.0507C24.6767 72.9091 23.7812 74.5723 23.7812 74.5723L24.8922 93.7158L29.4306 86.127L28.7909 74.5723C28.7909 74.5723 29.6865 72.9091 28.6158 71.0507L16.8389 50.244C16.6773 49.9612 16.6773 49.6111 16.8389 49.3283L33.3226 21.2157H33.3293Z" fill="url(#paint1_linear_2385_590)"/>
<path d="M100.362 55.1729L90.6924 61.59C90.6924 61.59 88.807 61.6505 87.7363 63.509L75.9796 84.0194C75.818 84.3022 75.515 84.4773 75.185 84.4773L42.2984 84.5042L39.8137 88.8406L77.7101 88.8069C78.0401 88.8069 78.3431 88.6319 78.5047 88.3491L90.2614 67.8387C91.3253 65.9802 93.2175 65.9196 93.2175 65.9196L109.54 55.1661H100.368L100.362 55.1729Z" fill="url(#paint2_linear_2385_590)"/>
<path d="M110.61 46.2644L86.3897 4.3077C85.1306 2.12603 82.8075 0.786072 80.2891 0.786072H31.848C29.3297 0.786072 27.0066 2.12603 25.7474 4.3077L1.5269 46.2644C0.267726 48.4461 0.267726 51.1328 1.5269 53.3077L24.9057 93.709L24.1516 75.1244C24.1516 75.1244 25.2222 73.3871 24.1516 71.5354L11.5599 50.1968C11.3982 49.914 11.3982 49.5639 11.5599 49.281L30.8313 16.8792L41.1134 34.1171L32.7032 48.4798C32.2318 49.2878 32.2386 50.2843 32.7032 51.0924L41.2615 66.364L24.8923 93.709C26.7575 96.6583 28.4947 98.7861 31.0063 98.7861H80.2824C82.8008 98.7861 85.1238 97.4461 86.383 95.2644L110.604 53.3077C111.863 51.126 111.863 48.4394 110.604 46.2644H110.61ZM33.7873 0.806272L51.2339 9.61374C51.2339 9.61374 52.2305 11.2231 54.3717 11.2231H78.0132C78.3431 11.2231 78.6462 11.3981 78.8078 11.6809L97.6819 44.5406H77.7169L69.0172 30.0164C68.5526 29.2084 67.6907 28.7101 66.7547 28.7168L50.2575 28.8043L33.7873 0.812991V0.806272ZM93.5138 65.482C93.5138 65.482 91.6284 65.5291 90.5376 67.3741L78.7876 87.8104C78.6192 88.0932 78.3162 88.2683 77.9863 88.2615H40.5949L50.6077 70.9698L67.253 71.1516C68.189 71.1651 69.0509 70.6668 69.5222 69.8588L77.8651 55.1729H109.533L93.5138 65.4752V65.482Z" fill="url(#paint3_linear_2385_590)"/>
<defs>
<linearGradient id="paint0_linear_2385_590" x1="65.7277" y1="0.799561" x2="65.7277" y2="44.5339" gradientUnits="userSpaceOnUse">
<stop stop-color="#333333"/>
<stop offset="1" stop-color="#DADADA"/>
</linearGradient>
<linearGradient id="paint1_linear_2385_590" x1="22.3309" y1="16.886" x2="22.3309" y2="93.7158" gradientUnits="userSpaceOnUse">
<stop stop-color="#333333"/>
<stop offset="1" stop-color="#DADADA"/>
</linearGradient>
<linearGradient id="paint2_linear_2385_590" x1="74.6766" y1="55.1661" x2="74.6766" y2="88.8406" gradientUnits="userSpaceOnUse">
<stop stop-color="#333333"/>
<stop offset="1" stop-color="#DADADA"/>
</linearGradient>
<linearGradient id="paint3_linear_2385_590" x1="56.0652" y1="0.786072" x2="56.0652" y2="98.7861" gradientUnits="userSpaceOnUse">
<stop/>
<stop offset="0.495192" stop-color="#333333"/>
<stop offset="1" stop-color="#333333"/>
</linearGradient>
</defs>
</svg>
