<svg width="111" height="98" viewBox="0 0 111 98" fill="none" xmlns="http://www.w3.org/2000/svg">
<path d="M51.2775 14.7734H74.9189C75.2489 14.7734 75.5519 14.9485 75.7135 15.2313L92.0962 43.7479H97.0925L78.2184 10.8882C78.0568 10.6053 77.7538 10.4303 77.4238 10.4303H53.7823C51.6411 10.4303 50.6445 8.82096 50.6445 8.82096L33.1979 0.0134888L37.8912 7.986L48.1396 13.1574C48.1396 13.1574 49.1362 14.7667 51.2775 14.7667V14.7734Z" fill="#B2B2B2"/>
<path d="M32.7468 20.4296L30.2487 16.1L10.8763 48.5422C10.7079 48.825 10.7079 49.1751 10.8763 49.4579L23.0236 70.2646C24.0942 72.1231 23.1986 73.7862 23.1986 73.7862L24.3097 92.9297L28.8481 85.341L28.2084 73.7862C28.2084 73.7862 29.1039 72.1231 28.0333 70.2646L16.2563 49.4579C16.0947 49.1751 16.0947 48.825 16.2563 48.5422L32.7401 20.4296H32.7468Z" fill="#B2B2B2"/>
<path d="M99.7792 54.3868L90.1099 60.8039C90.1099 60.8039 88.2245 60.8645 87.1538 62.7229L75.3971 83.2333C75.2355 83.5161 74.9325 83.6912 74.6025 83.6912L41.7159 83.7181L39.2312 88.0545L77.1276 88.0209C77.4576 88.0209 77.7606 87.8458 77.9222 87.563L89.6789 67.0526C90.7428 65.1941 92.6349 65.1336 92.6349 65.1336L108.957 54.3801H99.786L99.7792 54.3868Z" fill="#B2B2B2"/>
<path d="M110.028 45.4784L85.8072 3.52163C84.548 1.33996 82.225 0 79.7066 0H31.2655C28.7472 0 26.4241 1.33996 25.1649 3.52163L0.944379 45.4784C-0.314793 47.66 -0.314793 50.3467 0.944379 52.5216L24.3232 92.9229L23.5691 74.3383C23.5691 74.3383 24.6397 72.6011 23.5691 70.7493L10.9773 49.4107C10.8157 49.1279 10.8157 48.7778 10.9773 48.495L30.2488 16.0932L40.5309 33.331L32.1207 47.6937C31.6493 48.5017 31.6561 49.4983 32.1207 50.3063L40.679 65.578L24.3098 92.9229C26.175 95.8722 27.9122 98 30.4238 98H79.6999C82.2183 98 84.5413 96.66 85.8005 94.4783L110.021 52.5216C111.28 50.34 111.28 47.6533 110.021 45.4784H110.028ZM33.2048 0.0201998L50.6514 8.82767C50.6514 8.82767 51.6479 10.437 53.7892 10.437H77.4307C77.7606 10.437 78.0637 10.6121 78.2253 10.8949L97.0994 43.7546H77.1344L68.4347 29.2303C67.9701 28.4223 67.1082 27.924 66.1722 27.9307L49.675 28.0183L33.2048 0.0269194V0.0201998ZM92.9313 64.6959C92.9313 64.6959 91.0459 64.743 89.9551 66.588L78.205 87.0243C78.0367 87.3071 77.7337 87.4822 77.4038 87.4755H40.0124L50.0252 70.1837L66.6705 70.3655C67.6064 70.379 68.4683 69.8807 68.9397 69.0727L77.2826 54.3868H108.95L92.9313 64.6891V64.6959Z" fill="white"/>
</svg>
