<svg width="228" height="49" viewBox="0 0 228 49" fill="none" xmlns="http://www.w3.org/2000/svg">
<path d="M76.9604 0.0172019C77.6178 0.0172019 78.1934 0.0172019 78.7724 0.0172019C81.6744 0.0172019 84.573 0.0342365 87.475 0.000175693C88.0199 -0.00663647 88.2005 0.184101 88.3469 0.667765C90.4314 7.51739 92.533 14.3602 94.6345 21.2064C96.1604 26.1793 97.6898 31.1522 99.2191 36.1217C99.2736 36.2988 99.3315 36.4759 99.4439 36.8165C99.5529 36.527 99.621 36.3771 99.6687 36.217C103.306 24.3639 106.947 12.5107 110.568 0.654137C110.721 0.15685 110.922 -0.00322706 111.45 0.0035851C114.724 0.0308337 118 0.0172019 121.273 0.0172019H121.958C121.856 0.323749 121.778 0.565583 121.696 0.807415C117.278 13.9583 112.857 27.1058 108.439 40.2566C107.704 42.4468 106.954 44.6335 106.232 46.8304C106.12 47.1778 105.963 47.2868 105.602 47.2868C101.484 47.2766 97.3696 47.2698 93.2517 47.2936C92.7952 47.2936 92.7033 47.0756 92.5875 46.7282C89.3142 36.9323 86.0308 27.1398 82.7507 17.3473C80.8638 11.7069 78.9768 6.06641 77.0898 0.425936C77.0558 0.323753 77.0217 0.218161 76.9604 0.0172019Z" fill="white"/>
<path d="M178.002 13.2737H187.821V47.2323H178.192V41.8711C177.583 42.7124 177.079 43.5163 176.469 44.2281C174.551 46.4625 172.034 47.5967 169.16 47.9748C166.755 48.2916 164.374 48.2064 162.099 47.2561C158.73 45.8528 156.768 43.2574 155.961 39.773C155.719 38.7273 155.586 37.6306 155.583 36.5576C155.552 28.9757 155.566 21.3904 155.566 13.8084C155.566 13.6415 155.58 13.478 155.59 13.2771H165.416V14.006C165.416 20.4877 165.416 26.9695 165.416 33.4479C165.416 34.6332 165.546 35.7947 166.033 36.8914C166.898 38.8363 168.437 39.8411 170.522 40.025C174.861 40.4099 177.518 37.4671 177.937 33.6318C177.988 33.1516 177.998 32.6611 178.002 32.1774C178.005 26.1248 178.002 20.0756 178.002 14.023V13.2703V13.2737Z" fill="white"/>
<path d="M77.0796 39.933V47.2084C76.974 47.2322 76.8685 47.2765 76.7663 47.2765C73.6225 47.2561 70.4787 47.2901 67.3383 47.188C65.3389 47.1232 63.4689 46.5204 61.9328 45.158C60.1344 43.5639 59.4293 41.4521 59.3885 39.1428C59.3169 34.9056 59.3578 30.6617 59.3544 26.4245C59.3544 24.483 59.3544 22.545 59.3544 20.5422H54.0273V13.243C55.1002 13.243 56.1629 13.243 57.2222 13.243C58.8094 13.243 59.351 12.7048 59.351 11.1312C59.351 8.31096 59.351 5.49073 59.351 2.6705C59.351 2.46954 59.351 2.26858 59.351 2.03015H68.98V13.2191H76.1259V20.5047H69.014V21.1417C69.014 26.0532 69.014 30.9682 69.0174 35.8798C69.0174 36.343 69.0515 36.813 69.1264 37.2729C69.4126 38.9963 70.4344 39.8887 72.1987 39.9262C73.602 39.9569 75.0053 39.9364 76.4086 39.9364C76.6096 39.9364 76.814 39.9364 77.0762 39.9364L77.0796 39.933Z" fill="white"/>
<path d="M227.993 39.9331V47.2119C227.894 47.2357 227.809 47.2766 227.72 47.2766C224.539 47.2562 221.358 47.2971 218.18 47.1813C216.126 47.1063 214.208 46.4592 212.672 44.9945C210.935 43.3392 210.315 41.2104 210.288 38.9079C210.237 34.4459 210.268 29.9805 210.264 25.5152C210.264 23.8768 210.264 22.2351 210.264 20.5321H204.934V13.2431C205.438 13.2431 205.952 13.2431 206.466 13.2431C207.103 13.2431 207.74 13.2499 208.374 13.2431C209.675 13.226 210.261 12.6402 210.264 11.3459C210.268 8.46774 210.264 5.59301 210.264 2.71487V2.02344H219.903V13.2192H227.046V20.4878H219.927V21.1486C219.927 26.0057 219.924 30.8627 219.931 35.7164C219.931 36.2375 219.972 36.7621 220.05 37.2764C220.302 38.9351 221.337 39.8684 223.017 39.9127C224.457 39.9501 225.898 39.9263 227.339 39.9297C227.54 39.9297 227.741 39.9297 227.996 39.9297L227.993 39.9331Z" fill="white"/>
<path d="M202.379 0.0581055V0.759768C202.379 16.0122 202.379 31.268 202.379 46.5205C202.379 47.0246 202.129 47.2777 201.63 47.28C198.806 47.28 195.979 47.2698 193.155 47.2902C192.682 47.2936 192.563 47.1472 192.563 46.6908C192.573 31.3259 192.573 15.9577 192.573 0.592863V0.0581055H202.379Z" fill="white"/>
<path d="M41.7756 13.26H51.5579V47.2391H41.7756V13.26Z" fill="white"/>
<path d="M41.6495 0.0375977H51.6839V8.83551H41.6495V0.0375977Z" fill="white"/>
<path d="M36.7005 28.4716C35.1235 25.917 32.7597 24.3877 29.9633 23.4681C29.047 23.1683 28.1002 22.9674 27.1226 22.7119C27.6131 22.5348 28.0695 22.3849 28.5191 22.2078C33.5908 20.2289 36.2237 16.4992 36.1555 11.3731C36.1078 7.78646 34.7659 4.8368 31.806 2.72162C29.139 0.814215 26.077 0.0682854 22.8684 0.0410367C15.3819 -0.0202727 7.89869 0.0171917 0.412122 0.0171917C0.289504 0.0171917 0.166887 0.0478547 0.0102074 0.0682912C0.0102074 0.28628 0.0102074 0.470199 0.0102074 0.654127C0.0102074 15.9713 0.0102182 31.2884 0 46.6056C0 47.1437 0.143055 47.2902 0.681216 47.2868C7.75565 47.2698 14.8301 47.2868 21.9011 47.2697C24.8746 47.2629 27.8004 46.9019 30.5696 45.737C34.2856 44.1736 36.8913 41.5782 37.8688 37.5965C38.6488 34.4254 38.4649 31.3259 36.7005 28.4648V28.4716ZM10.2217 8.311C10.4294 8.30078 10.627 8.28035 10.8245 8.28035C13.9649 8.28035 17.1053 8.24969 20.2457 8.29737C21.0905 8.311 21.976 8.42681 22.7696 8.70611C25.0381 9.50653 26.2575 11.7954 25.859 14.2921C25.3889 17.2281 23.4202 19.0299 20.4331 19.0844C17.0508 19.1457 13.6686 19.0981 10.2217 19.0981V8.311ZM22.9978 38.792C22.3984 38.9215 21.7785 39.0066 21.1654 39.01C17.6469 39.0304 14.1318 39.0202 10.6133 39.0202C10.5043 39.0202 10.392 39.0066 10.2182 38.9964V27.0002C10.426 26.99 10.6099 26.9729 10.7939 26.9729C14.2374 26.9729 17.6776 26.9627 21.1211 26.9729C23.1886 26.9797 25.0585 27.5519 26.4142 29.2039C29.2378 32.6543 27.3815 37.8383 22.9978 38.7886V38.792Z" fill="white"/>
<path d="M151.925 39.9331C150.573 39.9263 149.97 39.3268 149.97 37.9882C149.97 34.0099 149.987 30.0316 149.96 26.0567C149.953 24.8475 149.881 23.6316 149.742 22.4292C149.19 17.7118 146.393 14.4011 141.795 13.134C137.626 11.9862 133.42 12.0543 129.285 13.2839C124.124 14.8166 120.97 18.2261 120.054 23.5907C120.023 23.7814 120.017 23.9756 120 24.1799H129.605C129.663 23.9381 129.714 23.7201 129.765 23.5056C130.163 21.9183 131.011 20.6649 132.558 20.0143C134.217 19.3161 135.94 19.2071 137.657 19.7623C139.625 20.3992 140.671 22.2862 140.191 24.2787C139.843 25.7161 138.685 26.1929 137.405 26.4348C135.79 26.7413 134.162 26.9934 132.541 27.2624C130.105 27.6678 127.68 28.1072 125.385 29.0506C123.252 29.926 121.369 31.1352 120.115 33.1345C118.814 35.2054 118.501 37.4977 118.794 39.8684C119.186 43.0496 120.793 45.4373 123.692 46.9053C125.844 47.9953 128.15 48.2371 130.514 48.0975C134.394 47.8693 137.677 46.3978 140.191 43.3766C140.48 43.0258 140.763 42.6682 141.117 42.2356C141.131 42.5115 141.141 42.675 141.148 42.8385C141.196 44.0681 141.7 45.0694 142.657 45.8358C143.747 46.7078 145.021 47.1506 146.387 47.2017C148.611 47.2868 150.838 47.263 153.062 47.28C153.148 47.28 153.233 47.2357 153.301 47.2153V39.9365C152.817 39.9365 152.371 39.9365 151.925 39.9365V39.9331ZM137.555 39.2519C135.804 40.9447 133.668 41.4965 131.294 40.9208C129.857 40.5734 128.872 39.6708 128.552 38.196C128.205 36.6053 128.525 35.185 129.857 34.1223C131.08 33.1482 132.565 32.8314 134.05 32.5214C135.419 32.2353 136.792 31.9594 138.151 31.6325C138.869 31.4587 139.564 31.1863 140.327 30.941C140.501 34.0814 139.901 36.98 137.551 39.2519H137.555Z" fill="white"/>
</svg>
